<svg width="23" height="44" viewBox="0 0 23 44" fill="none" xmlns="http://www.w3.org/2000/svg">
<path d="M6.70008 17V39.9165C6.69707 40.191 6.74674 40.4633 6.84617 40.7175C6.94561 40.9717 7.0928 41.2026 7.27911 41.3967C7.46542 41.5908 7.68708 41.7441 7.93108 41.8477C8.17508 41.9513 8.43649 42.003 8.69995 41.9999C8.96341 42.003 9.22482 41.9513 9.46882 41.8477C9.71282 41.7441 9.93448 41.5908 10.1208 41.3967V41.3967C10.3915 41.1147 11.0105 41.0473 11.0969 40.666C11.1455 40.4513 11.1239 40.1573 11 39.9165" stroke="#A5B2BA" stroke-width="3" stroke-miterlimit="10" stroke-linecap="round"/>
<path d="M11.0002 28.1111V39.9165C10.9964 40.191 11.0585 40.4633 11.1828 40.7175C11.3071 40.9717 11.4911 41.2026 11.7239 41.3967C11.9568 41.5908 12.2339 41.7441 12.5389 41.8477C12.8439 41.9513 13.1707 42.003 13.5 41.9999C13.8293 42.003 14.1561 41.9513 14.4611 41.8477C14.7661 41.7441 15.0432 41.5908 15.2761 41.3967C15.5089 41.2026 15.6929 40.9717 15.8172 40.7175C15.9415 40.4633 16.0036 40.191 15.9998 39.9165V17" stroke="#A5B2BA" stroke-width="3" stroke-miterlimit="10" stroke-linecap="round"/>
<path d="M6.75008 15.2V22.8999C6.7538 23.1766 6.69491 23.4511 6.57687 23.7074C6.45883 23.9636 6.28403 24.1964 6.06275 24.3921C5.84147 24.5878 5.57818 24.7423 5.28836 24.8467C4.99854 24.9511 4.68804 25.0031 4.37512 24.9999C4.06221 25.0031 3.75171 24.9511 3.46189 24.8467C3.17207 24.7423 2.90877 24.5878 2.68749 24.3921C2.46621 24.1964 2.29142 23.9636 2.17338 23.7074C2.05534 23.4511 1.99645 23.1766 2.00017 22.8999V15.2C2.00017 14.0861 2.5006 13.0178 3.39138 12.2301C4.28217 11.4425 5.49033 11 6.75008 11H16.2499C17.5097 11 18.7178 11.4425 19.6086 12.2301C20.4994 13.0178 20.9998 14.0861 20.9998 15.2V22.8999C21.0036 23.1766 20.9447 23.4511 20.8266 23.7074C20.7086 23.9636 20.5338 24.1964 20.3125 24.3921C20.0912 24.5878 19.8279 24.7423 19.5381 24.8467C19.2483 24.9511 18.9378 25.0031 18.6249 24.9999C18.312 25.0031 18.0015 24.9511 17.7116 24.8467C17.4218 24.7423 17.1585 24.5878 16.9372 24.3921C16.716 24.1964 16.5412 23.9636 16.4231 23.7074C16.3051 23.4511 16.2462 23.1766 16.2499 22.8999L16 15.2" stroke="#A5B2BA" stroke-width="3" stroke-miterlimit="10" stroke-linecap="round"/>
<path d="M11.5 9C13.433 9 15 7.433 15 5.5C15 3.567 13.433 2 11.5 2C9.567 2 8 3.567 8 5.5C8 7.433 9.567 9 11.5 9Z" stroke="#A5B2BA" stroke-width="3" stroke-miterlimit="10" stroke-linecap="round"/>
</svg>
