<svg width="33" height="23" viewBox="0 0 33 23" fill="none" xmlns="http://www.w3.org/2000/svg">
<path d="M30.5934 0.838379H7.90591C7.56766 0.838379 7.24866 1.00475 7.05753 1.28388L0.182531 11.2526C-0.0608438 11.6046 -0.0608438 12.0721 0.182531 12.4241L7.05753 22.3929C7.24866 22.672 7.56766 22.8384 7.90591 22.8384H30.5934C31.9203 22.8384 32.9997 21.759 32.9997 20.4321V3.24463C32.9997 1.91775 31.9203 0.838379 30.5934 0.838379ZM28.4745 15.7269C29.008 16.2645 29.008 17.1335 28.4745 17.6711C28.2078 17.9393 27.8585 18.074 27.5093 18.074C27.16 18.074 26.8108 17.9393 26.544 17.6711L22.6872 13.7826L18.8289 17.6711C18.5622 17.9393 18.2129 18.074 17.8637 18.074C17.5144 18.074 17.1652 17.9393 16.8984 17.6711C16.3649 17.1335 16.3649 16.2645 16.8984 15.7269L20.758 11.8384L16.8998 7.94988C16.3663 7.41225 16.3663 6.54325 16.8998 6.00563C17.4333 5.468 18.2968 5.468 18.8289 6.00563L22.6872 9.89413L26.5454 6.00563C27.0789 5.468 27.9424 5.468 28.4745 6.00563C29.008 6.54325 29.008 7.41225 28.4745 7.94988L24.6163 11.8384L28.4745 15.7269Z" fill="white" fill-opacity="0.7"/>
</svg>
