<svg width="44" height="43" viewBox="0 0 44 43" fill="none" xmlns="http://www.w3.org/2000/svg">
<path d="M9.72082 22.3554L16.0273 38.3492C16.1 38.5419 16.2208 38.7139 16.3824 38.8551C16.5441 38.9963 16.7434 39.104 16.9686 39.1716C17.1939 39.2393 17.4406 39.2657 17.6941 39.2493C17.9477 39.2329 18.203 39.1739 18.4452 39.0759V39.0759C18.689 38.9823 18.9159 38.8511 19.1125 38.69C19.309 38.529 19.4713 38.3414 19.5897 38.1382C19.7081 37.9349 19.7803 37.7203 19.8021 37.5067C19.8239 37.2931 19.7947 37.085 19.7164 36.8946" fill="white"/>
<path d="M9.72082 22.3554L16.0273 38.3492C16.1 38.5419 16.2208 38.7139 16.3824 38.8551C16.5441 38.9963 16.7434 39.104 16.9686 39.1716C17.1939 39.2393 17.4406 39.2657 17.6941 39.2493C17.9477 39.2329 18.203 39.1739 18.4452 39.0759V39.0759C18.689 38.9823 18.9159 38.8511 19.1125 38.69C19.309 38.529 19.4713 38.3414 19.5897 38.1382C19.7081 37.9349 19.7803 37.7203 19.8021 37.5067C19.8239 37.2931 19.7947 37.085 19.7164 36.8946" stroke="#A5B2BA" stroke-width="3" stroke-miterlimit="10" stroke-linecap="round"/>
<path d="M17.057 30.1497L19.8049 37.1186C19.866 37.2817 19.9752 37.4244 20.1261 37.5383C20.277 37.6521 20.4665 37.7349 20.6835 37.7817C20.9005 37.8285 21.1407 37.8384 21.3898 37.8108C21.639 37.7832 21.8921 37.7187 22.1344 37.621C22.3781 37.5271 22.6072 37.4015 22.8082 37.2516C23.0091 37.1017 23.1779 36.9306 23.3045 36.7482C23.4312 36.5659 23.5132 36.3761 23.5458 36.1899C23.5783 36.0036 23.5607 35.8248 23.4941 35.6639L18.16 22.1361" fill="white"/>
<path d="M17.057 30.1497L19.8049 37.1186C19.866 37.2817 19.9752 37.4244 20.1261 37.5383C20.277 37.6521 20.4665 37.7349 20.6835 37.7817C20.9005 37.8285 21.1407 37.8384 21.3898 37.8108C21.639 37.7832 21.8921 37.7187 22.1344 37.621C22.3781 37.5271 22.6072 37.4015 22.8082 37.2516C23.0091 37.1017 23.1779 36.9306 23.3045 36.7482C23.4312 36.5659 23.5132 36.3761 23.5458 36.1899C23.5783 36.0036 23.5607 35.8248 23.4941 35.6639L18.16 22.1361" stroke="#A5B2BA" stroke-width="3" stroke-miterlimit="10" stroke-linecap="round"/>
<path d="M9.32668 21.3562L11.9937 28.1201C12.0925 28.362 12.1418 28.6213 12.1389 28.8825C12.136 29.1438 12.0808 29.4018 11.9767 29.6415C11.8726 29.8811 11.7217 30.0975 11.5327 30.278C11.3437 30.4584 11.1206 30.5993 10.8764 30.6922V30.6922C10.6345 30.7909 10.3753 30.8403 10.114 30.8374C9.85274 30.8345 9.5947 30.7793 9.35505 30.6752C9.11541 30.5711 8.899 30.4201 8.71855 30.2312C8.5381 30.0422 8.39726 29.8191 8.30431 29.5749L5.63726 22.811C5.25143 21.8325 5.27011 20.7408 5.6892 19.776C6.10828 18.8113 6.89343 18.0526 7.87192 17.6668L15.2508 14.7573C16.2293 14.3714 17.3209 14.3901 18.2857 14.8092C19.2504 15.2283 20.0091 16.0134 20.3949 16.9919L23.062 23.7559C23.1607 23.9978 23.2101 24.257 23.2071 24.5183C23.2042 24.7795 23.1491 25.0376 23.045 25.2772C22.9409 25.5169 22.7899 25.7333 22.6009 25.9137C22.412 26.0942 22.1888 26.235 21.9447 26.3279V26.3279C21.7027 26.4267 21.4435 26.476 21.1823 26.4731C20.921 26.4702 20.663 26.4151 20.4233 26.311C20.1837 26.2068 19.9673 26.0559 19.7868 25.8669C19.6064 25.6779 19.4655 25.4548 19.3726 25.2106L16.7055 18.4467" fill="white"/>
<path d="M9.32668 21.3562L11.9937 28.1201C12.0925 28.362 12.1418 28.6213 12.1389 28.8825C12.136 29.1438 12.0808 29.4018 11.9767 29.6415C11.8726 29.8811 11.7217 30.0975 11.5327 30.278C11.3437 30.4584 11.1206 30.5993 10.8764 30.6922V30.6922C10.6345 30.7909 10.3753 30.8403 10.114 30.8374C9.85274 30.8345 9.5947 30.7793 9.35505 30.6752C9.11541 30.5711 8.899 30.4201 8.71855 30.2312C8.5381 30.0422 8.39726 29.8191 8.30431 29.5749L5.63726 22.811C5.25143 21.8325 5.27011 20.7408 5.6892 19.776C6.10828 18.8113 6.89343 18.0526 7.87192 17.6668L15.2508 14.7573C16.2293 14.3714 17.3209 14.3901 18.2857 14.8092C19.2504 15.2283 20.0091 16.0134 20.3949 16.9919L23.062 23.7559C23.1607 23.9978 23.2101 24.257 23.2071 24.5183C23.2042 24.7795 23.1491 25.0376 23.045 25.2772C22.9409 25.5169 22.7899 25.7333 22.6009 25.9137C22.412 26.0942 22.1888 26.235 21.9447 26.3279V26.3279C21.7027 26.4267 21.4435 26.476 21.1823 26.4731C20.921 26.4702 20.663 26.4151 20.4233 26.311C20.1837 26.2068 19.9673 26.0559 19.7868 25.8669C19.6064 25.6779 19.4655 25.4548 19.3726 25.2106L16.7055 18.4467" stroke="#A5B2BA" stroke-width="3" stroke-miterlimit="10" stroke-linecap="round"/>
<path d="M10.8035 14.2905C13.2231 13.3364 14.418 10.6187 13.4723 8.22023C12.5266 5.82179 9.79841 4.65091 7.37874 5.605C4.95908 6.55908 3.76421 9.27684 4.70993 11.6753C5.65564 14.0737 8.38382 15.2446 10.8035 14.2905Z" fill="white" stroke="#A5B2BA" stroke-width="3" stroke-miterlimit="10" stroke-linecap="round"/>
<path d="M23.6903 26.9546L21.4117 35.2397C21.3395 35.4908 21.3183 35.7538 21.3492 36.0132C21.3801 36.2726 21.4625 36.5232 21.5916 36.7503C21.7208 36.9774 21.894 37.1764 22.1011 37.3357C22.3082 37.4949 22.5451 37.6111 22.7978 37.6775V37.6775C23.0488 37.7496 23.3118 37.7709 23.5712 37.74C23.8306 37.7091 24.0813 37.6266 24.3084 37.4975C24.5355 37.3684 24.7345 37.1952 24.8937 36.988C25.0529 36.7809 25.1692 36.5441 25.2355 36.2914" fill="white"/>
<path d="M23.6903 26.9546L21.4117 35.2397C21.3395 35.4908 21.3183 35.7538 21.3492 36.0132C21.3801 36.2726 21.4625 36.5232 21.5916 36.7503C21.7208 36.9774 21.894 37.1764 22.1011 37.3357C22.3082 37.4949 22.5451 37.6111 22.7978 37.6775V37.6775C23.0488 37.7496 23.3118 37.7709 23.5712 37.74C23.8306 37.7091 24.0813 37.6266 24.3084 37.4975C24.5355 37.3684 24.7345 37.1952 24.8937 36.988C25.0529 36.7809 25.1692 36.5441 25.2355 36.2914" stroke="#A5B2BA" stroke-width="3" stroke-miterlimit="10" stroke-linecap="round"/>
<path d="M27.8322 26.8517L25.1761 36.509C25.1118 36.7315 25.0984 36.9661 25.1365 37.199C25.1746 37.4318 25.2636 37.6584 25.3982 37.8652C25.5328 38.072 25.7103 38.255 25.9203 38.4034C26.1302 38.5518 26.3684 38.6626 26.6209 38.7292C26.8719 38.801 27.1333 38.8276 27.3896 38.8075C27.6459 38.7874 27.892 38.7209 28.1134 38.612C28.3348 38.503 28.5272 38.3539 28.679 38.1733C28.8309 37.9926 28.9393 37.7842 28.9978 37.5601L31.6539 27.9027L27.8322 26.8517ZM23.2092 20.9295C23.0812 21.1253 22.9095 21.2937 22.7042 21.4247C22.4988 21.5556 22.2639 21.6466 22.0133 21.6921C21.7627 21.7377 21.5014 21.737 21.2448 21.69C20.9882 21.643 20.7415 21.5507 20.5191 21.4186C20.2937 21.2909 20.0962 21.1254 19.9382 20.9317C19.7801 20.738 19.6647 20.5201 19.5987 20.2908C19.5328 20.0615 19.5176 19.8254 19.5541 19.5965C19.5906 19.3675 19.678 19.1502 19.8112 18.9574L23.4384 13.5538C23.8378 12.9599 24.4476 12.5104 25.1768 12.2721C25.9061 12.0339 26.7158 12.0198 27.4854 12.2318L35.6065 14.4653C36.3762 14.6769 37.0647 15.1034 37.5694 15.6813C38.0741 16.2592 38.3679 16.9575 38.4071 17.6721L38.7608 24.1707C38.7767 24.4045 38.7407 24.6359 38.655 24.8513C38.5692 25.0668 38.4355 25.2619 38.2615 25.4252C38.0876 25.5885 37.877 25.7168 37.6421 25.8024C37.4073 25.888 37.1529 25.9292 36.8939 25.9236C36.6356 25.9229 36.3769 25.8755 36.1329 25.7844C35.889 25.6933 35.6647 25.5602 35.4732 25.3929C35.2816 25.2257 35.1268 25.0276 35.0176 24.8103C34.9085 24.5931 34.8472 24.361 34.8375 24.1276" fill="white"/>
<path d="M23.2092 20.9295C23.0812 21.1253 22.9095 21.2937 22.7042 21.4247C22.4988 21.5556 22.2639 21.6466 22.0133 21.6921C21.7627 21.7377 21.5014 21.737 21.2448 21.69C20.9882 21.643 20.7415 21.5507 20.5191 21.4186C20.2937 21.2909 20.0962 21.1254 19.9382 20.9317C19.7801 20.738 19.6647 20.5201 19.5987 20.2908C19.5328 20.0615 19.5176 19.8254 19.5541 19.5965C19.5906 19.3675 19.678 19.1502 19.8112 18.9574L23.4384 13.5538C23.8378 12.9599 24.4476 12.5104 25.1768 12.2721C25.9061 12.0339 26.7158 12.0198 27.4854 12.2318L35.6065 14.4653C36.3762 14.6769 37.0647 15.1034 37.5694 15.6813C38.0741 16.2592 38.3679 16.9575 38.4071 17.6721L38.7608 24.1707C38.7767 24.4045 38.7407 24.6359 38.655 24.8513C38.5692 25.0668 38.4355 25.2619 38.2615 25.4252C38.0876 25.5885 37.877 25.7168 37.6421 25.8024C37.4073 25.888 37.1529 25.9292 36.8939 25.9236C36.6356 25.9229 36.3769 25.8755 36.1329 25.7844C35.889 25.6933 35.6647 25.5602 35.4732 25.3929C35.2816 25.2257 35.1268 25.0276 35.0176 24.8103C34.9085 24.5931 34.8472 24.361 34.8375 24.1276M27.8322 26.8517L25.1761 36.509C25.1118 36.7315 25.0984 36.9661 25.1365 37.199C25.1746 37.4318 25.2636 37.6584 25.3982 37.8652C25.5328 38.072 25.7103 38.255 25.9203 38.4034C26.1302 38.5518 26.3684 38.6626 26.6209 38.7292C26.8719 38.801 27.1333 38.8276 27.3896 38.8075C27.6459 38.7874 27.892 38.7209 28.1134 38.612C28.3348 38.503 28.5272 38.3539 28.679 38.1733C28.8309 37.9926 28.9393 37.7842 28.9978 37.5601L31.6539 27.9027L27.8322 26.8517Z" stroke="#A5B2BA" stroke-width="3" stroke-miterlimit="10" stroke-linecap="round"/>
<path d="M31.8961 12.0734C34.2279 12.7148 36.6382 11.3443 37.2795 9.01245C37.9208 6.68059 36.5504 4.27034 34.2185 3.62901C31.8867 2.98768 29.4764 4.35812 28.8351 6.68998C28.1938 9.02184 29.5642 11.4321 31.8961 12.0734Z" fill="white" stroke="#A5B2BA" stroke-width="3" stroke-miterlimit="10" stroke-linecap="round"/>
<path d="M26.3852 17.1562L20.2169 24.6286L35.5124 28.8353L34.0329 19.2595" fill="white"/>
<path d="M26.3852 17.1562L20.2169 24.6286L35.5124 28.8353L34.0329 19.2595" stroke="#A5B2BA" stroke-width="3" stroke-linecap="round" stroke-linejoin="round"/>
</svg>
