<svg width="24" height="43" viewBox="0 0 24 43" fill="none" xmlns="http://www.w3.org/2000/svg">
<path d="M8.00013 30V38.9374C7.99711 39.2091 8.04678 39.4787 8.14622 39.7303C8.24565 39.982 8.39285 40.2106 8.57916 40.4027C8.76547 40.5949 8.98713 40.7467 9.23113 40.8492C9.47513 40.9518 9.73654 41.003 10 40.9999V40.9999C10.2635 41.003 10.5249 40.9518 10.7689 40.8492C11.0129 40.7467 11.2345 40.5949 11.4208 40.4027C11.6071 40.2106 11.7543 39.982 11.8538 39.7303C11.9532 39.4787 12.0029 39.2091 11.9999 38.9374" stroke="#A5B2BA" stroke-width="3" stroke-miterlimit="10" stroke-linecap="round"/>
<path d="M5.92057 22.0795C5.84854 22.3387 5.72661 22.5806 5.56192 22.791C5.39724 23.0013 5.19314 23.1758 4.96161 23.3043C4.73007 23.4328 4.47578 23.5126 4.21368 23.5391C3.95157 23.5655 3.68694 23.5381 3.43533 23.4585C3.182 23.3848 2.94563 23.26 2.74012 23.0915C2.53461 22.9229 2.3641 22.714 2.23863 22.4771C2.11315 22.2401 2.03524 21.9799 2.00948 21.7117C1.98371 21.4435 2.01062 21.1727 2.0886 20.9153L4.17074 13.7324C4.40033 12.9427 4.87309 12.2501 5.51859 11.7577C6.16408 11.2654 6.94776 10.9996 7.75285 11H16.248C17.0531 10.9999 17.8368 11.266 18.4821 11.7587C19.1275 12.2514 19.6 12.9443 19.8293 13.7341L21.9114 20.917C21.9894 21.1744 22.0163 21.4452 21.9905 21.7134C21.9648 21.9816 21.8869 22.2418 21.7614 22.4788C21.6359 22.7157 21.4654 22.9246 21.2599 23.0932C21.0544 23.2617 20.818 23.3865 20.5647 23.4602C20.3133 23.539 20.049 23.5657 19.7874 23.5388C19.5258 23.5118 19.272 23.4317 19.0411 23.3031C18.8101 23.1745 18.6065 23.0001 18.4422 22.79C18.278 22.5799 18.1563 22.3383 18.0844 22.0795M12.0004 28V38.9544C11.9974 39.2239 12.047 39.4913 12.1464 39.7408C12.2458 39.9904 12.3929 40.2171 12.5792 40.4076C12.7654 40.5982 12.9869 40.7487 13.2308 40.8504C13.4747 40.9521 13.7359 41.003 13.9993 40.9999C14.2626 41.003 14.5239 40.9521 14.7677 40.8504C15.0116 40.7487 15.2332 40.5982 15.4194 40.4076C15.6056 40.2171 15.7527 39.9904 15.8521 39.7408C15.9515 39.4913 16.0011 39.2239 15.9981 38.9544V28H12.0004Z" stroke="#A5B2BA" stroke-width="3" stroke-miterlimit="10" stroke-linecap="round"/>
<path d="M12.5 9C14.433 9 16 7.433 16 5.5C16 3.567 14.433 2 12.5 2C10.567 2 9 3.567 9 5.5C9 7.433 10.567 9 12.5 9Z" stroke="#A5B2BA" stroke-width="3" stroke-miterlimit="10" stroke-linecap="round"/>
<path d="M8 15L4 28H20L16 15" stroke="#A5B2BA" stroke-width="3" stroke-linecap="round" stroke-linejoin="round"/>
</svg>
